# xmcd
#
# Track frame offsets:
#	183
#	13378
#	25853
#	41175
#	53428
#	62843
#	74793
#	83155
#	94293
#	106520
#	121298
#	132700
#
# Disc length: 2054
#
# Revision: 3
# Processed by: cddbd v1.5.1PL0 Copyright (c) Steve Scherf et al.
# Submitted via: CDValet v3.01 - Copyright (c) 1997 Greg Leichner
# Normalized: r1:DSETVAR1,TSWAP
#
DISCID=aa08040c
DTITLE=Various Artist - IN THE MIDNIGHT HOUR - Disc 2
DYEAR=1900
DGENRE=
TTITLE0=Fontella Bass - Rescue Me
TTITLE1=Lee Dorsey - Working In A Coalmine
TTITLE2=Ramsey Lewis - Wade In Water
TTITLE3=Judy Clay and William Bell - Private Number
TTITLE4=Roy Head and The Traits - Treat Her right
TTITLE5=Sam and Dave - Soul Man
TTITLE6=Doris Troy - Whatcha Gonna Do About It
TTITLE7=Wilson Pickett - In The Midnight Hour
TTITLE8=Otis Redding - Mr Pitiful
TTITLE9=James and Bobby Purify - I'm Your Puppet
TTITLE10=Flamingos - Boogaloo Party
TTITLE11=Gloria Jones - Tainted Love
EXTD=
EXTT0=
EXTT1=
EXTT2=
EXTT3=
EXTT4=
EXTT5=
EXTT6=
EXTT7=
EXTT8=
EXTT9=
EXTT10=
EXTT11=
PLAYORDER=
